<svg width="71" height="106" viewBox="0 0 71 106" fill="none" xmlns="http://www.w3.org/2000/svg">
<path fill-rule="evenodd" clip-rule="evenodd" d="M35.2044 53C46.9069 53 55.708 55.4179 61.6077 60.3504C67.4106 65.1861 70.312 71.5693 70.312 79.5C70.312 87.4307 67.4106 93.8139 61.6077 98.7464C55.708 103.582 46.9069 106 35.2044 106C23.4051 106 14.604 103.582 8.8011 98.7464C2.90146 93.8139 0 87.4307 0 79.5C0 71.5693 2.90146 65.1861 8.8011 60.3504C14.604 55.4179 23.4051 53 35.2044 53ZM57.9325 79.5C57.9325 71.0858 50.3887 66.927 35.2044 66.927C20.0201 66.927 12.3796 71.0858 12.3796 79.5C12.3796 87.8175 20.0201 91.9763 35.2044 91.9763C50.3887 91.9763 57.9325 87.8175 57.9325 79.5ZM69.0547 0V43.135L56.9653 43.135V27.854H15.281V30.2719L24.0821 43.2318H10.2518L1.35401 30.2719L1.35401 13.927H56.9653V0H69.0547Z" fill="#D10E14"/>
</svg>
